<svg width="873" height="634" viewBox="0 0 873 634" fill="none" xmlns="http://www.w3.org/2000/svg">
<path d="M193.333 458.56C206.841 459.13 220.627 458.568 234.169 458.568H646.033C668.557 458.534 694.433 453.608 708.369 476.1C717.261 490.452 713.025 518.006 709.289 533.828C693.189 601.994 624.409 646.26 555.663 629.712C500.345 621.28 465.125 566.832 453.747 515.798C442.501 508.186 429.935 507.32 418.607 515.798C416.243 522.266 415.233 529.194 413.489 535.85C377.165 674.42 170.689 663.502 154.907 504.494C152.391 479.132 168.331 460.876 193.333 458.56ZM403.437 470.064C413.811 486.21 413.769 476.738 418.607 502.29C432.199 497.608 440.103 497.386 453.747 502.29C453.777 498.296 453.855 494.526 454.835 490.626C457.427 481.596 461.427 475.678 468.957 470.064H403.437Z" fill="#484686"/>
<path d="M524.428 604.392C493.912 586.676 474.01 555.71 467.056 521.412C457.796 475.738 478.266 470.04 517.99 470.048L642.924 470.036C658.734 470.032 679.918 466.15 693.462 475.764C704.25 486.004 702.53 497.104 701.286 510.396C695.474 572.456 650.714 620.43 586.484 621.172C568.196 621.384 539.058 615.79 524.428 604.392Z" fill="#99A3FF"/>
<path d="M216.969 597.856C191.403 579.426 151.313 513.478 170.589 483.35C181.679 466.016 201.215 470.052 218.967 470.046L342.611 470.036C358.547 470.03 377.229 466.414 391.087 475.764C415.351 484.866 405.973 526.128 399.403 543.542C375.937 605.728 307.483 637.37 245.099 613.42C235.595 609.772 224.645 604.648 216.969 597.856Z" fill="#99A3FF"/>
<path d="M308.306 0.2524C360.066 -0.7352 402.028 44.322 449.088 35.2C477.696 29.654 503.25 13.834 530.66 4.534C571.292 -9.2534 618.146 10.42 639.382 47.034C645.162 57 647.918 69.182 651.28 80.158L661.24 112.198C674.556 155.454 687.586 198.96 701.87 241.9C710.736 241.142 720.6 242.702 729.45 243.492C761.176 246.328 867.1 255.95 872.512 298.598C876.894 333.112 826.024 361.564 800.922 374.28C738.284 406.014 663.452 425.126 593.452 433.45C460.472 453.21 286.202 446.002 159.654 408.8C114.518 395.53 56.6846 374.27 22.3852 340.892C-63.4464 257.368 123.958 243.078 170.022 243.54C186.766 187.566 205.106 132.142 222.246 76.31C235.066 34.544 260.642 3.085 308.306 0.2524Z" fill="#484686"/>
<path d="M184.374 236.356C195.068 238.648 205.768 243.71 216.188 247.18C364.616 296.616 543.362 291.95 688.594 236.356C694.866 258.872 703.762 280.676 709.766 303.194C700.962 307.474 692.548 313.372 684.112 318.37C559.574 383.906 342.954 385.408 218.76 333.316C199.392 325.192 181.272 314.714 163.742 303.194C168.93 280.784 176.348 257.852 184.374 236.356Z" fill="#A4A9C3"/>
<path d="M705.185 253.872C726.219 253.044 882.093 265.922 859.217 312.864C831.915 368.89 692.473 404.678 631.181 415.618C466.511 445.012 236.285 442.204 80.8323 366.224C61.6801 356.444 -11.8179 315.08 20.1347 286.406C46.6131 262.646 132.101 253.99 166.487 255.94C163.367 261.966 150.187 301.146 151.187 306.306C152.171 311.394 178.647 325.958 184.217 329.03C319.081 403.39 571.643 398.086 703.717 319.886C725.895 306.754 722.941 305.434 714.701 281.482L705.185 253.872Z" fill="#A4A9C3"/>
<path d="M308.307 12.482C353.513 7.50856 395.671 54.592 447.353 47.184C479.201 42.62 507.021 23.334 537.633 14.712C571.655 5.12857 611.285 21.182 628.779 51.984C634.613 62.252 637.449 73.942 640.773 85.186L670.933 183.796C675.297 197.75 680.125 211.59 684.113 225.654C652.367 238.358 618.167 247.252 584.641 253.872C473.091 274.686 365.781 275.478 255.999 246.606C234.195 240.87 207.965 233.988 188.049 223.862C198.953 185.734 212.301 145.32 224.587 107.606C238.637 64.472 249.047 14.06 308.307 12.482Z" fill="#A4A9C3"/>
</svg>
